PathFileType	4	(X/Y/Z)	C3D_Data\SPM_data\ik.trc
DataRate	CameraRate	NumFrames	NumMarkers	Units	OrigDataRate	OrigDataStartFrame	OrigNumFrames
120.000000	120.000000	4	51	mm	120.000000	66	132
Frame#	Time	Sternum			Neck			RShoulder			LShoulder			Xiphoid			Thoracic			RAsis			LAsis			RPsis			LPsis			Lumbar			RElbow			RWrist			RRadius			RUlna			LElbow			LWrist			LUlna			LRadius			LThighSuperior			LThighInferior			LThighLateral			LPatella			LShankSuperior			LShankInferior			LShankLateral			RThighSuperior			RThighInferior			RThighLateral			RPatella			RShankSuperior			RShankInferior			RShankLateral			RHeel			RToe			RMidfootLateral			RHindfoot			LHeel			LToe			LMidfootMedial			LMidfootLateral			LHindfoot			LMidfootSuperior			LToeMedial			LToeLateral			Oglobal			Sacral			Xglobal			Yglobal			Zglobal			RMidfootSuperior			
		X1	Y1	Z1	X2	Y2	Z2	X3	Y3	Z3	X4	Y4	Z4	X5	Y5	Z5	X6	Y6	Z6	X7	Y7	Z7	X8	Y8	Z8	X9	Y9	Z9	X10	Y10	Z10	X11	Y11	Z11	X12	Y12	Z12	X13	Y13	Z13	X14	Y14	Z14	X15	Y15	Z15	X16	Y16	Z16	X17	Y17	Z17	X18	Y18	Z18	X19	Y19	Z19	X20	Y20	Z20	X21	Y21	Z21	X22	Y22	Z22	X23	Y23	Z23	X24	Y24	Z24	X25	Y25	Z25	X26	Y26	Z26	X27	Y27	Z27	X28	Y28	Z28	X29	Y29	Z29	X30	Y30	Z30	X31	Y31	Z31	X32	Y32	Z32	X33	Y33	Z33	X34	Y34	Z34	X35	Y35	Z35	X36	Y36	Z36	X37	Y37	Z37	X38	Y38	Z38	X39	Y39	Z39	X40	Y40	Z40	X41	Y41	Z41	X42	Y42	Z42	X43	Y43	Z43	X44	Y44	Z44	X45	Y45	Z45	X46	Y46	Z46	X47	Y47	Z47	X48	Y48	Z48	X49	Y49	Z49	X50	Y50	Z50	X51	Y51	Z51	

67	0.5500000000000002	715.8687744140625	1427.971069335938	161.6039276123047	553.4059448242188	1530.96728515625	158.1813507080078	593.3549194335938	1517.396362304688	320.8365173339843	591.1651000976563	1523.38525390625	23.11861991882322	745.6449584960938	1269.297241210938	167.5571136474609	469.0582885742188	1314.118896484375	168.6062469482422	655.9773559570313	998.1128540039063	304.8931579589844	659.6464233398438	1003.885864257813	28.66170883178713	468.8458862304688	1036.712524414063	224.1567840576172	463.5794067382813	1028.89453125	119.1689376831055	481.9340209960938	1134.42529296875	176.923828125	489.6739196777343	1197.450073242188	415.7349548339844	543.2688598632813	930.5452880859375	439.9037475585938	562.7971801757813	922.18505859375	391.202392578125	498.6519775390624	923.6554565429688	440.1522521972656	622.1561889648438	1195.847290039063	-120.7729339599609	839.0072021484375	1043.665283203125	-164.9288024902343	810.384521484375	1008.828735351563	-151.7662353515625	864.33251953125	1057.619018554688	-124.1000900268554	548.4955444335938	831.2393188476563	-14.52596950531004	534.6173706054688	598.520263671875	22.71231460571292	634.454345703125	686.2888793945313	64.87904357910159	587.468994140625	494.2696533203125	96.23558807373051	462.9873352050781	368.1323547363281	26.45715904235843	369.4497985839844	188.8904266357422	64.37783813476565	448.5693054199219	263.4468383789063	98.21821594238286	663.4655151367188	822.3084106445313	342.9257507324219	714.7384033203125	590.387939453125	319.4981384277344	745.8211059570313	755.5867309570313	286.7427062988282	814.5411987304688	551.2120971679688	272.1452941894532	742.5238037109375	434.3323059082031	326.3940429687501	819.9675903320313	192.8126068115235	294.5010375976564	839.9367065429688	332.1099548339844	258.3653869628907	781.8410034179688	56.25941085815431	237.6492309570313	1084.781494140625	133.7039794921875	264.9191894531251	991.8636474609375	79.92572021484376	323.1328125000001	944.522705078125	67.49012756347658	312.7851867675782	238.5025329589844	73.28177642822266	113.3466186523438	554.5089721679688	50.3076400756836	78.12014007568366	454.7781372070313	34.65398406982423	140.7349548339844	445.5752868652344	31.75223350524902	21.75890350341802	392.2078857421875	32.95210647583008	37.2542114257813	433.0111389160156	95.71183013916016	92.72296142578131	499.114013671875	32.32146453857423	131.5411071777344	492.9442138671875	38.22547149658203	27.87570190429693	0	0	0	466.212646484375	1032.803466796875	171.6628570556641	-200	0	-2.449293598294706e-14	-2.449293598294706e-14	1.224646799147353e-14	200	1.499759782661858e-30	200	-1.224646799147353e-14	946.8661499023438	137.9837493896485	259.1983032226564	
68	0.5583333333333335	725.0714111328125	1426.943725585938	163.3289947509766	562.4735717773438	1529.682373046875	159.9290618896484	602.1170654296875	1515.8134765625	322.4501342773437	600.541259765625	1522.55615234375	24.76353645324705	755.2395629882813	1268.341064453125	169.0328216552734	478.5415344238281	1312.604370117188	169.4108123779297	666.0349731445313	996.5406494140625	305.5632934570313	669.5234375	1002.599182128906	29.56930351257326	478.8123474121094	1035.248901367188	225.0895538330078	473.41796875	1027.470703125	120.0275726318359	491.8933410644531	1132.9658203125	177.9656066894531	498.4992065429687	1195.653686523438	416.7341918945313	552.1883544921875	928.8338012695313	441.3795166015625	571.9285888671875	920.3602905273438	392.4963073730469	507.5200805664062	921.9612426757813	441.3024291992188	630.9981689453125	1195.344970703125	-119.6044387817383	847.2984008789063	1041.80029296875	-163.564224243164	818.2512817382813	1007.325500488281	-150.7831115722656	872.5853881835938	1055.545043945313	-122.7463073730468	557.1884765625	830.3221435546875	-13.73082065582274	542.8309936523438	597.5884399414063	23.08525466918949	643.126708984375	684.823486328125	65.52178192138676	595.5079345703125	492.3722839355469	96.27818298339848	468.3533020019531	367.9129028320313	27.03774452209476	371.9845581054688	190.6817932128906	64.00706481933597	452.3232727050781	263.3739929199219	98.09114837646489	675.02001953125	821.4882202148438	343.7827758789063	726.2779541015625	589.5239868164063	319.8300476074219	757.31201171875	755.4698486328125	288.0519104003907	825.0789794921875	550.746826171875	272.5329589843751	751.3097534179688	432.86767578125	325.7767944335939	824.1168823242188	190.2955169677735	292.7197570800782	846.9323120117188	329.2822875976563	257.2491760253907	783.5980224609375	57.139705657959	237.6842498779298	1089.198852539063	124.4116287231445	259.4497070312501	995.8340454101563	73.84420776367189	319.7160034179689	947.2199096679688	62.98222351074221	310.3492126464845	239.3383178710938	76.46315002441406	113.4321899414063	555.0450439453125	49.67970657348634	78.01622009277351	455.0989074707031	34.83173751831055	140.6074371337891	445.7030944824219	31.78109931945801	21.77156448364263	392.2839050292969	33.57461166381836	37.28893280029302	434.2742309570313	96.09857177734375	92.48833465576178	499.4788208007813	32.17330551147462	131.4186706542969	493.4346923828125	37.9688720703125	27.73974418640142	0	0	0	476.1151733398438	1031.35986328125	172.5585632324219	-200	0	-2.449293598294706e-14	-2.449293598294706e-14	1.224646799147353e-14	200	1.499759782661858e-30	200	-1.224646799147353e-14	953.31005859375	133.8104705810547	256.6448059082032	
69	0.5666666666666668	734.4359741210938	1426.106689453125	165.0891571044922	571.5177001953125	1528.567016601563	161.6088256835937	610.7636108398438	1514.301513671875	324.1197509765624	609.8320922851563	1521.757446289063	26.50685882568358	764.7529907226563	1267.400390625	170.6661682128906	488.1488037109375	1311.208129882813	170.3288421630859	676.4983520507813	995.5360717773438	306.3380432128906	679.4403076171875	1001.488708496094	30.44009017944338	489.0220947265625	1033.978637695313	226.3276214599609	483.3383483886719	1026.154907226563	120.9600830078125	501.9265441894531	1131.67822265625	179.0788421630859	507.5256958007812	1193.913452148438	417.7041015625	561.3643798828125	927.1837768554688	442.8182373046875	581.308837890625	918.61865234375	394.0011291503906	516.5465698242188	920.22119140625	442.3574829101563	639.759765625	1194.459716796875	-117.8785552978515	855.132080078125	1039.826782226563	-162.3108825683593	825.8179321289063	1005.458312988281	-149.7628631591796	880.540283203125	1053.043090820313	-121.3546981811523	566.2891235351563	829.5907592773438	-13.06484889984129	551.4522705078125	596.8424682617188	23.32901573181156	652.1976318359375	683.5382690429688	65.69955444335942	603.43115234375	490.4923095703125	96.06137847900395	474.3661499023438	368.2799682617188	26.87266159057621	375.146728515625	192.4405212402344	64.33438873291018	456.6838684082031	264.7740173339844	98.90332794189457	685.9418334960938	820.375732421875	344.7899169921875	737.1848754882813	588.3676147460938	320.3121337890626	769.3348999023438	755.6620483398438	289.2875976562501	835.1017456054688	549.3753051757813	272.3371582031251	759.9653930664063	431.5589294433594	325.4157714843751	828.7201538085938	188.4624938964844	291.6966857910157	853.8153686523438	326.7782592773438	256.3607482910157	785.6663818359375	57.96067047119142	238.5826721191407	1092.929565429688	116.4183807373047	253.0077362060548	1000.397644042969	69.14657592773439	316.5668029785157	951.0269165039063	58.25848770141604	307.1101074218751	240.5792999267578	79.86855316162109	113.2155380249024	555.2301025390625	49.02751159667969	78.06957244873054	455.6706237792969	35.23635864257813	140.6763153076172	445.8242492675781	31.82485389709473	21.74251747131353	392.1385803222656	34.29833221435547	37.513111114502	435.6241455078125	96.66981506347656	92.21582794189459	499.6356811523438	32.14372253417969	131.6428833007813	493.4272155761719	37.63302612304688	27.95700263977056	0	0	0	486.1802368164063	1030.066772460938	173.6438446044922	-200	0	-2.449293598294706e-14	-2.449293598294706e-14	1.224646799147353e-14	200	1.499759782661858e-30	200	-1.224646799147353e-14	958.0471801757813	129.2388916015625	253.4956817626954	
70	0.5750000000000001	743.704833984375	1425.325073242188	166.9773712158203	580.591796875	1527.576049804688	163.4492950439453	619.58935546875	1513.015869140625	325.8752441406249	619.0689697265625	1521.081298828125	28.18579864501951	774.4363403320313	1266.903930664063	172.0835418701172	497.7772827148438	1310.063354492188	171.2533111572265	687.0223999023438	994.8018188476563	307.1054382324219	689.4889526367188	1000.383972167969	31.32566833496096	499.3243103027344	1032.885375976563	227.4401245117188	493.4183654785156	1025.013427734375	121.926628112793	512.079833984375	1130.572998046875	180.0249786376953	516.6176147460938	1192.110473632813	418.7193298339844	570.6551513671875	925.4710083007813	444.1351318359375	590.927734375	917.010498046875	395.48681640625	526.2088623046875	918.5813598632813	443.8693542480469	648.3575439453125	1193.692138671875	-116.1927032470703	862.7344360351563	1037.548461914063	-161.0836334228515	833.0792236328125	1003.354736328125	-148.6719665527343	888.0989990234375	1050.453369140625	-119.9293975830078	575.8346557617188	828.8123168945313	-12.4105005264282	560.5184936523438	596.0494995117188	23.56115722656253	661.7738647460938	682.4295043945313	65.77986145019536	612.66259765625	488.8148803710938	96.20574951171879	480.8367614746094	368.9951171875	26.7880020141602	378.4324951171875	194.4785461425781	64.20551300048831	461.6644897460938	265.8578186035156	99.23097229003911	696.3705444335938	819.1912231445313	345.7179870605469	747.5988159179688	587.1393432617188	320.7151489257813	781.7546997070313	756.0772705078125	290.9268493652344	844.7377319335938	547.8515625	271.9059143066407	768.5789184570313	430.5570068359375	325.303436279297	834.50244140625	186.9805145263672	291.524383544922	860.576904296875	324.7942504882813	255.740219116211	788.0684204101563	58.93587493896486	239.5427551269532	1096.575927734375	108.5191268920899	247.0881347656251	1004.390930175781	63.39683914184572	313.0760803222657	954.6129760742188	53.63389587402346	304.0791015625001	242.1792297363281	83.87649536132813	113.5093002319336	555.4649658203125	48.68957901000977	77.85357666015632	456.2784118652344	35.61043930053712	140.5707397460938	445.8731689453125	31.91531753540039	21.70165824890142	392.5553283691406	35.07313919067383	37.83000946044927	436.9232482910156	98.18748474121094	91.23558044433599	499.9214782714844	32.22992324829102	131.6114196777344	493.4755859375	37.48860931396484	27.92806053161627	0	0	0	496.371337890625	1028.949340820313	174.6833801269531	-200	0	-2.449293598294706e-14	-2.449293598294706e-14	1.224646799147353e-14	200	1.499759782661858e-30	200	-1.224646799147353e-14	962.8817749023438	126.6631698608399	251.3984222412111	
